<svg xmlns="http://www.w3.org/2000/svg" viewBox="0 0 100 100" role="img" aria-label="Etqadem logo">
  <!-- Reversed mark, no tile, for dark surfaces. -->
  <g stroke="#3CC2B8" stroke-width="6"><line x1="50" y1="5" x2="50" y2="16" transform="rotate(0 50 50)"/><line x1="50" y1="5" x2="50" y2="16" transform="rotate(30 50 50)"/><line x1="50" y1="5" x2="50" y2="16" transform="rotate(60 50 50)"/><line x1="50" y1="5" x2="50" y2="16" transform="rotate(90 50 50)"/><line x1="50" y1="5" x2="50" y2="16" transform="rotate(120 50 50)"/></g><g stroke="#F3F0E8" stroke-opacity="0.28" stroke-width="6"><line x1="50" y1="5" x2="50" y2="16" transform="rotate(150 50 50)"/><line x1="50" y1="5" x2="50" y2="16" transform="rotate(180 50 50)"/><line x1="50" y1="5" x2="50" y2="16" transform="rotate(210 50 50)"/><line x1="50" y1="5" x2="50" y2="16" transform="rotate(240 50 50)"/><line x1="50" y1="5" x2="50" y2="16" transform="rotate(270 50 50)"/><line x1="50" y1="5" x2="50" y2="16" transform="rotate(300 50 50)"/><line x1="50" y1="5" x2="50" y2="16" transform="rotate(330 50 50)"/></g><g transform="rotate(-45 50 50)"><g fill="#F3F0E8"><rect x="22" y="41" width="6" height="18" rx="1.5"/><rect x="27" y="36" width="8" height="28" rx="1.5"/><rect x="34" y="47.5" width="30" height="5"/></g><polygon points="61,38 81,50 61,62" fill="#3CC2B8"/></g><circle cx="50" cy="50" r="4.5" fill="#F3F0E8"/><circle cx="50" cy="50" r="2" fill="#14161B"/>
</svg>
